<svg width="138" height="44" viewBox="0 0 138 44" fill="none" xmlns="http://www.w3.org/2000/svg">
<g clip-path="url(#clip0_10086_1418)">
<path d="M29.9755 0.34728C29.9101 7.40187 28.3949 14.1426 25.7118 20.2549C21.2621 30.403 13.6023 38.8068 4.05088 44C3.93947 43.8612 3.82806 43.7225 3.71738 43.5801C3.71378 43.5764 3.71091 43.5735 3.70731 43.5699C2.14331 41.3969 0.883344 38.9855 0 36.3954C12.7183 29.4898 21.3828 15.9393 21.4453 0.33057H21.4489C22.8196 0.112612 24.2269 0 25.6565 0C27.1256 0 28.5689 0.119151 29.9755 0.34728Z" fill="url(#paint0_linear_10086_1418)"/>
<path d="M29.9757 0.346554C28.5692 0.119151 27.1266 0 25.6568 0C24.2265 0 22.8199 0.112612 21.4492 0.329844C21.5103 7.39315 23.0305 14.1411 25.7136 20.2556C26.8291 22.8006 28.1458 25.2352 29.6444 27.5361C31.6634 25.73 33.701 23.639 35.715 21.2183C32.1054 15.1111 30.0203 7.97583 29.9894 0.35164C29.9851 0.346554 29.9801 0.346554 29.9757 0.346554Z" fill="url(#paint1_linear_10086_1418)"/>
<path d="M42.1306 29.4717C40.3294 31.689 38.3298 33.7371 36.1592 35.584C39.4568 38.8933 43.208 41.7246 47.312 43.9637C49.0234 41.6744 50.3897 39.1083 51.3255 36.3439C47.9409 34.4942 44.8489 32.1736 42.1306 29.4717Z" fill="url(#paint2_linear_10086_1418)"/>
<path d="M47.7009 11.434C41.69 30.1246 24.4464 43.6918 4.02172 43.9933C2.31038 41.7142 0.942594 39.1575 0.00390625 36.3989C1.1 36.4948 2.20903 36.5413 3.32812 36.5413C22.1428 36.5413 37.8684 23.1659 41.7029 5.30859C44.0065 7.01811 46.0355 9.08872 47.7009 11.434Z" fill="#29FFB2"/>
<path d="M72.1217 21.3362V32.8859H69.8677V31.4699C68.9046 32.5538 67.5691 33.2179 65.9713 33.2179C62.7096 33.2179 60.2803 30.6954 60.2803 27.1114C60.2803 23.5275 62.7096 20.9824 65.9713 20.9824C67.5691 20.9824 68.9046 21.6683 69.8677 22.7522V21.3362H72.1217ZM69.8677 27.1114C69.8677 24.7437 68.2476 23.2397 66.2344 23.2397C64.2205 23.2397 62.6227 24.8548 62.6227 27.1114C62.6227 29.368 64.2205 30.9831 66.2344 30.9831C68.2476 30.9831 69.8677 29.4784 69.8677 27.1114Z" fill="white"/>
<path d="M78.0078 32.9075V16.6899H80.3718V32.9075H78.0078Z" fill="white"/>
<path d="M97.2915 21.3587V31.448C97.2915 35.6074 95.0584 37.8204 91.5782 37.8204C88.9519 37.8204 87.3756 36.6034 86.4564 35.4308L88.1857 33.9044C88.7542 34.7007 89.7835 35.5856 91.4689 35.5856C93.5705 35.5856 94.9491 34.2139 94.9491 31.6914V31.6253C93.986 32.6206 92.6944 33.2403 91.1627 33.2403C87.901 33.2403 85.4717 30.7178 85.4717 27.1339C85.4717 23.5499 87.901 21.0049 91.1627 21.0049C92.7605 21.0049 94.0952 21.7132 95.0584 22.7747V21.3587H97.2915ZM95.0584 27.1331C95.0584 24.7654 93.439 23.2615 91.4251 23.2615C89.4111 23.2615 87.8134 24.8766 87.8134 27.1331C87.8134 29.3897 89.4111 31.0048 91.4251 31.0048C93.439 31.0048 95.0584 29.5009 95.0584 27.1331Z" fill="white"/>
<path d="M111.999 29.3237L113.749 30.8283C112.502 32.2887 110.598 33.2179 108.387 33.2179C104.884 33.2179 102.346 30.5849 102.346 27.0446C102.346 23.6372 104.819 20.9824 108.255 20.9824C111.692 20.9824 114.187 23.6372 114.187 27.0446H114.166C114.166 27.3984 114.143 27.7529 114.099 28.0842H104.731C105.081 29.8323 106.394 31.0492 108.387 31.0492C109.919 31.0492 111.188 30.3634 111.999 29.3237ZM104.754 26.0049H111.802C111.429 24.3455 110.182 23.1729 108.255 23.1729C106.351 23.1729 105.125 24.3455 104.754 26.0049Z" fill="white"/>
<path d="M138 26.2036V32.9073C138 32.9073 136.994 32.9073 135.636 32.9073C135.636 31.0488 135.636 26.9999 135.636 26.3584C135.636 24.3669 134.63 23.2612 132.856 23.2612C130.996 23.2612 129.792 24.4338 129.792 26.8677V32.908C129.792 32.908 129.113 32.908 128.085 32.908C127.888 32.908 127.669 32.908 127.45 32.908C127.45 31.0496 127.45 27.0006 127.45 26.3591C127.45 24.3677 126.443 23.2619 124.67 23.2619C122.81 23.2619 121.584 24.4345 121.584 26.8684V32.9087C120.817 32.9087 120.204 32.9087 119.876 32.9087H119.241V21.3584H121.474V22.6414C122.414 21.6461 123.75 21.0264 125.238 21.0264C127.187 21.0264 128.5 21.8008 129.2 23.2168C130.163 21.8895 131.673 21.0264 133.447 21.0264C136.49 21.0264 138 22.9066 138 26.2036Z" fill="white"/>
</g>
<defs>
<linearGradient id="paint0_linear_10086_1418" x1="3.23598" y1="41.2449" x2="26.0988" y2="7.99635" gradientUnits="userSpaceOnUse">
<stop offset="0.0466" stop-color="#078296"/>
<stop offset="0.1056" stop-color="#0A8F99"/>
<stop offset="0.2661" stop-color="#12AD9F"/>
<stop offset="0.4036" stop-color="#17BFA4"/>
<stop offset="0.5011" stop-color="#19C6A5"/>
<stop offset="0.587" stop-color="#17C1A3"/>
<stop offset="0.6933" stop-color="#12B19F"/>
<stop offset="0.8098" stop-color="#0A9898"/>
<stop offset="0.9132" stop-color="#007C90"/>
</linearGradient>
<linearGradient id="paint1_linear_10086_1418" x1="46.0697" y1="46.2891" x2="25.9386" y2="7.46819" gradientUnits="userSpaceOnUse">
<stop offset="0.0951" stop-color="#29FFB2"/>
<stop offset="0.1995" stop-color="#28FCB1"/>
<stop offset="0.2759" stop-color="#26F3AF"/>
<stop offset="0.3435" stop-color="#21E3AB"/>
<stop offset="0.4058" stop-color="#1BCCA6"/>
<stop offset="0.4646" stop-color="#12AF9F"/>
<stop offset="0.52" stop-color="#088C97"/>
<stop offset="0.5271" stop-color="#078796"/>
<stop offset="0.5435" stop-color="#098F98"/>
<stop offset="0.6406" stop-color="#14BCA1"/>
<stop offset="0.7159" stop-color="#1BD8A7"/>
<stop offset="0.7596" stop-color="#1EE2A9"/>
<stop offset="0.7707" stop-color="#1FE5AA"/>
<stop offset="0.8633" stop-color="#26F7B0"/>
<stop offset="0.9286" stop-color="#29FEB2"/>
</linearGradient>
<linearGradient id="paint2_linear_10086_1418" x1="48.376" y1="45.0932" x2="28.2449" y2="6.27228" gradientUnits="userSpaceOnUse">
<stop offset="0.0951" stop-color="#29FFB2"/>
<stop offset="0.1995" stop-color="#28FCB1"/>
<stop offset="0.2759" stop-color="#26F3AF"/>
<stop offset="0.3435" stop-color="#21E3AB"/>
<stop offset="0.4058" stop-color="#1BCCA6"/>
<stop offset="0.4646" stop-color="#12AF9F"/>
<stop offset="0.52" stop-color="#088C97"/>
<stop offset="0.5271" stop-color="#078796"/>
<stop offset="0.5435" stop-color="#098F98"/>
<stop offset="0.6406" stop-color="#14BCA1"/>
<stop offset="0.7159" stop-color="#1BD8A7"/>
<stop offset="0.7596" stop-color="#1EE2A9"/>
<stop offset="0.7707" stop-color="#1FE5AA"/>
<stop offset="0.8633" stop-color="#26F7B0"/>
<stop offset="0.9286" stop-color="#29FEB2"/>
</linearGradient>
<clipPath id="clip0_10086_1418">
<rect width="138" height="44" fill="white"/>
</clipPath>
</defs>
</svg>
